<svg height="18.283" viewBox="0 0 78.521 18.283" width="78.521" xmlns="http://www.w3.org/2000/svg" xmlns:xlink="http://www.w3.org/1999/xlink"><clipPath id="a"><path d="m0 0h78.521v18.283h-78.521z"/></clipPath><g clip-path="url(#a)" fill="#6c63ff"><path d="m13.323 9.021a6.164 6.164 0 0 1 -6.323 4.92 6.729 6.729 0 0 1 -7-6.941 6.845 6.845 0 0 1 7.082-7 6.368 6.368 0 0 1 5.718 3.141l-2.261 1.22a3.891 3.891 0 0 0 -3.48-1.982 4.413 4.413 0 0 0 -4.379 4.621 4.365 4.365 0 0 0 4.382 4.581 3.28 3.28 0 0 0 3.48-2.84h-3.142v-2.241h6.121v.321a11.536 11.536 0 0 1 -.2 2.2"/><path d="m22.161 13.642v-1.142a3.35 3.35 0 0 1 -2.821 1.421 4.357 4.357 0 0 1 -4.261-4.642 4.328 4.328 0 0 1 4.201-4.579 3.614 3.614 0 0 1 2.881 1.381v-1.1h2.439v8.661zm-2.161-6.761a2.431 2.431 0 1 0 2.42 2.419 2.416 2.416 0 0 0 -2.42-2.419"/><path d="m29.36 7.061v6.581h-2.42v-6.581h-.96v-2.08h.96v-2.96h2.42v2.96h1.7v2.08z"/><path d="m34.339 9.7c.04 1.34.681 2.32 2.121 2.32a2.248 2.248 0 0 0 2.06-1.16l2.241.359a4.246 4.246 0 0 1 -4.261 2.7 4.342 4.342 0 0 1 -4.641-4.619 4.29 4.29 0 0 1 4.541-4.6c2.86 0 4.421 1.921 4.421 4.681v.319zm2.1-3.281a1.966 1.966 0 0 0 -2.021 1.74h4.1a2.007 2.007 0 0 0 -2.08-1.74"/><path d="m52.421 13.822h-1.121l-2.34-5.281-2.3 5.281h-1.12l-4.44-8.841h2.72l2.281 5 2.359-5.241h1.04l2.36 5.321 2.34-5.08h2.7z"/><path d="m64.241 13.642v-1.142a3.348 3.348 0 0 1 -2.82 1.421 4.357 4.357 0 0 1 -4.261-4.64 4.328 4.328 0 0 1 4.2-4.581 3.612 3.612 0 0 1 2.881 1.381v-1.1h2.441v8.661zm-2.16-6.761a2.431 2.431 0 1 0 2.419 2.419 2.416 2.416 0 0 0 -2.42-2.421"/><path d="m71.52 18.283h-2.74l3.18-5.94-4.1-7.362h2.82l2.6 4.92 2.48-4.92h2.76z"/></g></svg>