<svg xmlns="http://www.w3.org/2000/svg" width="81" height="66" viewBox="0 0 81 66">
    <defs>
        <clipPath id="clip-path">
            <path id="Rectangle_1639" fill="none" d="M0 0H81V66H0z" transform="translate(0 -.466)"/>
        </clipPath>
        <style>
            .cls-3{fill:#6c63ff}
        </style>
    </defs>
    <g id="Group_155" transform="translate(0 .466)">
        <g id="Group_70" clip-path="url(#clip-path)">
            <path id="Path_146" d="M.566 17.7L36.831.1a1 1 0 0 1 .879 0l36.042 17.627a1 1 0 0 1 .024 1.793l-2.326 1.214a.6.6 0 0 0-.324.534V38.8a1 1 0 0 1-1 1h-2.5a1 1 0 0 1-1-1V24.166a.6.6 0 0 0-.864-.542L37.568 37.29a1 1 0 0 1-.88 0L.561 19.507a1 1 0 0 1 .005-1.8" class="cls-3"/>
            <path id="Path_147" d="M125.338 133.876l-16.222-8.1a.741.741 0 0 1-.005-1.327l19.816-9.939a.739.739 0 0 1 .657 0l16.094 7.925a.741.741 0 0 1 .013 1.324L126 133.87a.739.739 0 0 1-.665.006" class="cls-3" transform="translate(-65.019 -68.417)"/>
            <path id="Path_148" d="M54.076 103.617L30.59 92.066a.765.765 0 0 1-.451-.7V76.97a.765.765 0 0 1 1.1-.687l23.487 11.508a.766.766 0 0 1 .428.687v14.441a.765.765 0 0 1-1.079.7" class="cls-3" transform="translate(-18.027 -45.564)"/>
        </g>
    </g>
</svg>
