<svg height="66" viewBox="0 0 81 66" width="81" xmlns="http://www.w3.org/2000/svg" xmlns:xlink="http://www.w3.org/1999/xlink"><clipPath id="a"><path d="m0 0h81v66h-81z" transform="translate(0 -.466)"/></clipPath><g clip-path="url(#a)" fill="#6c63ff" transform="translate(0 .466)"><path d="m.566 17.7 36.265-17.6a1 1 0 0 1 .879 0l36.042 17.627a1 1 0 0 1 .024 1.793l-2.326 1.214a.6.6 0 0 0 -.324.534v17.532a1 1 0 0 1 -1 1h-2.5a1 1 0 0 1 -1-1v-14.634a.6.6 0 0 0 -.864-.542l-28.194 13.666a1 1 0 0 1 -.88 0l-36.127-17.783a1 1 0 0 1 .005-1.8"/><path d="m125.338 133.876-16.222-8.1a.741.741 0 0 1 -.005-1.327l19.816-9.939a.739.739 0 0 1 .657 0l16.094 7.925a.741.741 0 0 1 .013 1.324l-19.691 10.111a.739.739 0 0 1 -.665.006" transform="translate(-65.019 -68.417)"/><path d="m54.076 103.617-23.486-11.551a.765.765 0 0 1 -.451-.7v-14.396a.765.765 0 0 1 1.1-.687l23.487 11.508a.766.766 0 0 1 .428.687v14.441a.765.765 0 0 1 -1.079.7" transform="translate(-18.027 -45.564)"/></g></svg>