<svg xmlns="http://www.w3.org/2000/svg" width="78" height="16" viewBox="0 0 78 16">
    <g id="Group_244" transform="translate(-401.914 -668.834)">
        <path id="Path_192" d="M415.082 673.063h-3.1a3.66 3.66 0 0 0-3.253-1.642 4.067 4.067 0 0 0 0 8.132 3.58 3.58 0 0 0 3.625-2.447H408.5v-2.385h6.863v.744a6.724 6.724 0 1 1-6.692-6.63c3.297-.001 5.683 1.858 6.411 4.228z" class="cls-1" style="fill:#6c63ff"/>
        <path id="Path_193" d="M424.5 678.889a4.233 4.233 0 0 1 4.415-4.391 3.172 3.172 0 0 1 2.6 1.059v-.857h2.757v8.381h-2.757v-.858a3.173 3.173 0 0 1-2.6 1.058 4.232 4.232 0 0 1-4.415-4.392zm7.064 0a2.107 2.107 0 0 0-2.216-2.217 2.218 2.218 0 0 0 0 4.434 2.107 2.107 0 0 0 2.214-2.217z" class="cls-1" style="fill:#6c63ff" transform="translate(-8.118 -2.008)"/>
        <path id="Path_194" d="M447.985 675.724h-1.8v6.708h-2.757v-6.708h-1.8v-2.371h1.8v-2.7h2.757v2.7h1.8z" class="cls-1" transform="translate(-14.268 -.647)" style="fill:#6c63ff"/>
        <path id="Path_195" d="M452.433 678.889a4.738 4.738 0 0 1 9.45 0 5.3 5.3 0 0 1-.062.815h-6.646a1.884 1.884 0 0 0 1.983 1.531 1.936 1.936 0 0 0 1.673-.658h2.769c-.465 1.6-2.246 2.7-4.446 2.7a4.388 4.388 0 0 1-4.721-4.388zm6.754-.829a1.9 1.9 0 0 0-2.029-1.544 1.866 1.866 0 0 0-2 1.544z" class="cls-1" style="fill:#6c63ff" transform="translate(-18.158 -2.008)"/>
        <path id="Path_196" d="M482.569 674.834l-3.036 8.348h-2.773l-1.643-4.772-1.626 4.772h-2.757l-3.037-8.348h2.913l1.611 5.37 1.58-5.37h2.82l1.6 5.4 1.611-5.4z" class="cls-1" style="fill:#6c63ff" transform="translate(-23.672 -2.127)"/>
        <path id="Path_197" d="M491.338 678.889a4.233 4.233 0 0 1 4.415-4.391 3.17 3.17 0 0 1 2.6 1.059v-.857h2.757v8.381h-2.757v-.858a3.171 3.171 0 0 1-2.6 1.058 4.232 4.232 0 0 1-4.415-4.392zm7.064 0a2.107 2.107 0 0 0-2.215-2.217 2.218 2.218 0 0 0 0 4.434 2.107 2.107 0 0 0 2.213-2.217z" class="cls-1" style="fill:#6c63ff" transform="translate(-32.228 -2.008)"/>
        <path id="Path_198" d="M518.15 674.834l-5.221 12.858h-2.711l1.642-4.027-3.579-8.831h3.052l1.967 5.608 1.983-5.608z" class="cls-1" style="fill:#6c63ff" transform="translate(-38.236 -2.858)"/>
    </g>
</svg>
